<svg width="17" height="18" viewBox="0 0 17 18" fill="none" xmlns="http://www.w3.org/2000/svg">
<path fill-rule="evenodd" clip-rule="evenodd" d="M4.79166 0.041687C5.13684 0.041687 5.41666 0.321509 5.41666 0.666687V3.16669C5.41666 3.51186 5.13684 3.79169 4.79166 3.79169C4.44649 3.79169 4.16666 3.51186 4.16666 3.16669V0.666687C4.16666 0.321509 4.44649 0.041687 4.79166 0.041687Z" fill="#00D498"/>
<path fill-rule="evenodd" clip-rule="evenodd" d="M11.4583 0.041687C11.8035 0.041687 12.0833 0.321509 12.0833 0.666687V3.16669C12.0833 3.51186 11.8035 3.79169 11.4583 3.79169C11.1132 3.79169 10.8333 3.51186 10.8333 3.16669V0.666687C10.8333 0.321509 11.1132 0.041687 11.4583 0.041687Z" fill="#00D498"/>
<path fill-rule="evenodd" clip-rule="evenodd" d="M2.07258 3.4878C1.53864 4.06282 1.25 4.92916 1.25 6.08335V13.1667C1.25 14.3209 1.53864 15.1872 2.07258 15.7622C2.59873 16.3289 3.45246 16.7084 4.79167 16.7084H11.4583C12.7975 16.7084 13.6513 16.3289 14.1774 15.7622C14.7114 15.1872 15 14.3209 15 13.1667V6.08335C15 4.92916 14.7114 4.06282 14.1774 3.4878C13.6513 2.92117 12.7975 2.54169 11.4583 2.54169H4.79167C3.45246 2.54169 2.59873 2.92117 2.07258 3.4878ZM1.15659 2.63724C1.9846 1.74553 3.21421 1.29169 4.79167 1.29169H11.4583C13.0358 1.29169 14.2654 1.74553 15.0934 2.63724C15.9136 3.52056 16.25 4.73755 16.25 6.08335V13.1667C16.25 14.5125 15.9136 15.7295 15.0934 16.6128C14.2654 17.5045 13.0358 17.9584 11.4583 17.9584H4.79167C3.21421 17.9584 1.9846 17.5045 1.15659 16.6128C0.336362 15.7295 0 14.5125 0 13.1667V6.08335C0 4.73755 0.336362 3.52056 1.15659 2.63724Z" fill="#00D498"/>
<path fill-rule="evenodd" clip-rule="evenodd" d="M4.16666 8.16669C4.16666 7.82151 4.44649 7.54169 4.79166 7.54169H11.4583C11.8035 7.54169 12.0833 7.82151 12.0833 8.16669C12.0833 8.51186 11.8035 8.79169 11.4583 8.79169H4.79166C4.44649 8.79169 4.16666 8.51186 4.16666 8.16669Z" fill="#00D498"/>
<path fill-rule="evenodd" clip-rule="evenodd" d="M4.16666 12.3334C4.16666 11.9882 4.44649 11.7084 4.79166 11.7084H8.125C8.47018 11.7084 8.75 11.9882 8.75 12.3334C8.75 12.6786 8.47018 12.9584 8.125 12.9584H4.79166C4.44649 12.9584 4.16666 12.6786 4.16666 12.3334Z" fill="#00D498"/>
</svg>
