<svg width="9" height="15" viewBox="0 0 9 15" fill="none" xmlns="http://www.w3.org/2000/svg">
<path fill-rule="evenodd" clip-rule="evenodd" d="M1.5894 1.76471L3.09878 0.403791L7.98988 5.38038C9.13026 6.5407 9.13026 8.4593 7.98988 9.61961L3.09878 14.5962C2.56965 15.1346 1.73441 15.1346 1.20527 14.5962C0.642515 14.0236 0.642515 13.0668 1.20527 12.4942L6.09636 7.51757C6.10432 7.50947 6.10679 7.50334 6.10679 7.50334L6.10752 7.5L6.10679 7.49666C6.10679 7.49666 6.10432 7.49052 6.09636 7.48243L1.20527 2.50584M1.5894 1.76471L1.20527 0.403789C1.7344 -0.134598 2.56964 -0.134596 3.09878 0.403791L1.5894 1.76471ZM1.20527 2.50584C0.642513 1.93325 0.642517 0.976378 1.20527 0.403789L1.5894 1.76471" fill="#00C898"/>
</svg>
