<svg width="25" height="25" viewBox="0 0 25 25" fill="none" xmlns="http://www.w3.org/2000/svg">
<rect width="25" height="25" rx="6" fill="#00D498"/>
<path fill-rule="evenodd" clip-rule="evenodd" d="M9.8 6.76471L11.2978 5.40379L16.1513 10.3804C17.2829 11.5407 17.2829 13.4593 16.1513 14.6196L11.2978 19.5962C10.7727 20.1346 9.94389 20.1346 9.41882 19.5962C8.86039 19.0236 8.86039 18.0668 9.41882 17.4942L14.2723 12.5176C14.2802 12.5095 14.2827 12.5033 14.2827 12.5033L14.2834 12.5L14.2827 12.4967C14.2827 12.4967 14.2802 12.4905 14.2723 12.4824L9.41882 7.50584M9.8 6.76471L9.41882 5.40379C9.94389 4.8654 10.7727 4.8654 11.2978 5.40379L9.8 6.76471ZM9.41882 7.50584C8.86039 6.93325 8.8604 5.97638 9.41882 5.40379L9.8 6.76471" fill="white"/>
</svg>
