<svg width="205" height="101" viewBox="0 0 205 101" fill="none" xmlns="http://www.w3.org/2000/svg">
<line x1="8.33566e-08" y1="90.5" x2="205" y2="90.5" stroke="#E3E2E0"/>
<line x1="8.33566e-08" y1="79.5" x2="205" y2="79.5" stroke="#E3E2E0"/>
<line x1="8.33566e-08" y1="68.5" x2="205" y2="68.5" stroke="#E3E2E0"/>
<line x1="8.33566e-08" y1="57.5" x2="205" y2="57.5" stroke="#E3E2E0"/>
<line x1="8.33566e-08" y1="46.5" x2="205" y2="46.5" stroke="#E3E2E0"/>
<line x1="8.33566e-08" y1="35.5" x2="205" y2="35.5" stroke="#E3E2E0"/>
<line x1="8.33566e-08" y1="24.5" x2="205" y2="24.5" stroke="#E3E2E0"/>
<line x1="8.33566e-08" y1="13.5" x2="205" y2="13.5" stroke="#E3E2E0"/>
<line x1="8.33566e-08" y1="0.5" x2="205" y2="0.500038" stroke="#E3E2E0"/>
<line x1="90.5" y1="2.18557e-08" x2="90.5" y2="101" stroke="#E3E2E0"/>
<line x1="113.5" y1="2.18557e-08" x2="113.5" y2="101" stroke="#E3E2E0"/>
<line x1="136.5" y1="2.18557e-08" x2="136.5" y2="101" stroke="#E3E2E0"/>
<line x1="159.5" y1="2.18557e-08" x2="159.5" y2="101" stroke="#E3E2E0"/>
<line x1="182.5" y1="2.18557e-08" x2="182.5" y2="101" stroke="#E3E2E0"/>
<line x1="204.5" y1="2.18557e-08" x2="204.5" y2="101" stroke="#E3E2E0"/>
<line x1="67.5" y1="2.18557e-08" x2="67.5" y2="101" stroke="#E3E2E0"/>
<line x1="21.5" y1="2.18557e-08" x2="21.5" y2="101" stroke="#E3E2E0"/>
<line x1="44.5" y1="2.18557e-08" x2="44.5" y2="101" stroke="#E3E2E0"/>
<line x1="0.5" y1="2.18557e-08" x2="0.499996" y2="101" stroke="#E3E2E0"/>
</svg>
