<svg width="30" height="30" viewBox="0 0 30 30" fill="none" xmlns="http://www.w3.org/2000/svg">
<path d="M4.0868 17.1318V13.0508H0.00574493L4.0868 17.1318ZM4.23035 2.84375V12.9072H14.2889L17.1356 10.0605L7.0741 -3.8147e-06L4.23035 2.84375Z" fill="#00D498"/>
<path d="M25.9123 12.8664V16.9504H29.9963L25.9123 12.8664ZM25.7697 27.1555V17.094H15.7092L12.8635 19.9397L22.925 30.0002L25.7697 27.1555Z" fill="#00D498"/>
<path d="M16.9467 -0.00203323V4.08488H12.8598L16.9467 -0.00203323ZM17.0913 14.2948V4.22844H27.1469L29.9916 7.07316L19.9311 17.1347L17.0913 14.2948Z" fill="#00D498"/>
<path d="M13.0508 29.9973V25.9162H17.1318L13.0508 29.9973ZM12.9062 15.7102V25.7727H2.84668L0 22.926L10.0615 12.8654L12.9062 15.7102Z" fill="#00D498"/>
</svg>
