<svg width="111" height="21" viewBox="0 0 111 21" fill="none" xmlns="http://www.w3.org/2000/svg">
<path d="M107.217 17.3601L105.085 14.8054C104.495 14.9529 103.891 15.0266 103.274 15.0266C101.96 15.0266 100.753 14.7182 99.6534 14.1013C98.5537 13.4844 97.682 12.6328 97.0383 11.5466C96.3946 10.4469 96.0728 9.20645 96.0728 7.82516C96.0728 6.45728 96.3946 5.23021 97.0383 4.14396C97.682 3.04429 98.5537 2.18601 99.6534 1.56913C100.753 0.952242 101.96 0.643799 103.274 0.643799C104.602 0.643799 105.809 0.952242 106.895 1.56913C107.995 2.18601 108.86 3.04429 109.49 4.14396C110.134 5.23021 110.456 6.45728 110.456 7.82516C110.456 9.07234 110.187 10.2122 109.651 11.2449C109.128 12.2641 108.411 13.0955 107.499 13.7392L110.717 17.3601H107.217ZM98.9694 7.82516C98.9694 8.7639 99.1505 9.58865 99.5126 10.2994C99.8747 11.0102 100.378 11.56 101.021 11.9489C101.678 12.3244 102.429 12.5122 103.274 12.5122C104.119 12.5122 104.863 12.3244 105.507 11.9489C106.151 11.56 106.654 11.0102 107.016 10.2994C107.378 9.58865 107.559 8.7639 107.559 7.82516C107.559 6.88642 107.378 6.06837 107.016 5.37102C106.654 4.66026 106.151 4.11714 105.507 3.74164C104.863 3.36614 104.119 3.1784 103.274 3.1784C102.429 3.1784 101.678 3.36614 101.021 3.74164C100.378 4.11714 99.8747 4.66026 99.5126 5.37102C99.1505 6.06837 98.9694 6.88642 98.9694 7.82516Z" fill="white"/>
<path d="M93.9747 0.845215V14.8861H91.1584V0.845215H93.9747Z" fill="white"/>
<path d="M89.6411 3.74146L82.7413 20.156H79.744L82.1579 14.604L77.6922 3.74146H80.8504L83.727 11.5263L86.6438 3.74146H89.6411Z" fill="white"/>
<path d="M76.1966 0V14.8857H73.3804V0H76.1966Z" fill="white"/>
<path d="M62.5632 5.35074C62.9253 4.84113 63.4215 4.4187 64.0518 4.08344C64.6955 3.73476 65.4263 3.56042 66.2444 3.56042C67.1965 3.56042 68.0548 3.79511 68.8192 4.26448C69.597 4.73385 70.2072 5.40438 70.6498 6.27606C71.1057 7.13434 71.3337 8.13343 71.3337 9.27333C71.3337 10.4132 71.1057 11.4257 70.6498 12.3108C70.2072 13.1825 69.597 13.8597 68.8192 14.3425C68.0548 14.8253 67.1965 15.0667 66.2444 15.0667C65.4263 15.0667 64.7022 14.8991 64.0719 14.5638C63.455 14.2285 62.9521 13.8061 62.5632 13.2965V20.1962H59.7469V3.74147H62.5632V5.35074ZM68.4571 9.27333C68.4571 8.6028 68.3163 8.02614 68.0347 7.54336C67.7665 7.04717 67.4044 6.67168 66.9484 6.41688C66.5059 6.16208 66.0231 6.03467 65.5001 6.03467C64.9905 6.03467 64.5077 6.16878 64.0518 6.43699C63.6092 6.69179 63.2471 7.06729 62.9655 7.56348C62.6973 8.05967 62.5632 8.64303 62.5632 9.31356C62.5632 9.98409 62.6973 10.5674 62.9655 11.0636C63.2471 11.5598 63.6092 11.942 64.0518 12.2102C64.5077 12.465 64.9905 12.5924 65.5001 12.5924C66.0231 12.5924 66.5059 12.4583 66.9484 12.1901C67.4044 11.9219 67.7665 11.5397 68.0347 11.0435C68.3163 10.5473 68.4571 9.95727 68.4571 9.27333Z" fill="white"/>
<path d="M48.9309 5.35074C49.293 4.84113 49.7892 4.4187 50.4195 4.08344C51.0632 3.73476 51.7941 3.56042 52.6121 3.56042C53.5643 3.56042 54.4226 3.79511 55.187 4.26448C55.9648 4.73385 56.575 5.40438 57.0175 6.27606C57.4735 7.13434 57.7015 8.13343 57.7015 9.27333C57.7015 10.4132 57.4735 11.4257 57.0175 12.3108C56.575 13.1825 55.9648 13.8597 55.187 14.3425C54.4226 14.8253 53.5643 15.0667 52.6121 15.0667C51.7941 15.0667 51.0699 14.8991 50.4396 14.5638C49.8227 14.2285 49.3198 13.8061 48.9309 13.2965V20.1962H46.1147V3.74147H48.9309V5.35074ZM54.8249 9.27333C54.8249 8.6028 54.6841 8.02614 54.4024 7.54336C54.1342 7.04717 53.7721 6.67168 53.3162 6.41688C52.8736 6.16208 52.3908 6.03467 51.8678 6.03467C51.3582 6.03467 50.8755 6.16878 50.4195 6.43699C49.9769 6.69179 49.6149 7.06729 49.3332 7.56348C49.065 8.05967 48.9309 8.64303 48.9309 9.31356C48.9309 9.98409 49.065 10.5674 49.3332 11.0636C49.6149 11.5598 49.9769 11.942 50.4195 12.2102C50.8755 12.465 51.3582 12.5924 51.8678 12.5924C52.3908 12.5924 52.8736 12.4583 53.3162 12.1901C53.7721 11.9219 54.1342 11.5397 54.4024 11.0435C54.6841 10.5473 54.8249 9.95727 54.8249 9.27333Z" fill="white"/>
<path d="M43.3358 3.74146V14.8856H40.4995V13.4775C40.1374 13.9603 39.6613 14.3425 39.0712 14.6241C38.4946 14.8923 37.8643 15.0264 37.1803 15.0264C36.3086 15.0264 35.5375 14.8454 34.867 14.4833C34.1965 14.1078 33.6668 13.5647 33.2778 12.8539C32.9023 12.1298 32.7146 11.2715 32.7146 10.2791V3.74146H35.5308V9.87679C35.5308 10.7619 35.7521 11.4458 36.1947 11.9286C36.6372 12.398 37.2407 12.6327 38.0051 12.6327C38.7829 12.6327 39.3931 12.398 39.8356 11.9286C40.2782 11.4458 40.4995 10.7619 40.4995 9.87679V3.74146H43.3358Z" fill="white"/>
<path d="M25.4045 15.0265C24.4256 15.0265 23.5405 14.8589 22.7492 14.5236C21.9714 14.1884 21.3545 13.7056 20.8986 13.0753C20.4426 12.445 20.2079 11.7007 20.1945 10.8424H23.2119C23.2521 11.4191 23.4533 11.875 23.8154 12.2103C24.1909 12.5456 24.7005 12.7132 25.3442 12.7132C26.0013 12.7132 26.5176 12.559 26.8931 12.2505C27.2686 11.9287 27.4564 11.5129 27.4564 11.0033C27.4564 10.5876 27.329 10.2456 27.0742 9.97743C26.8194 9.70922 26.4975 9.50136 26.1086 9.35384C25.7331 9.19291 25.2101 9.01858 24.5396 8.83083C23.6276 8.56262 22.8833 8.30111 22.3067 8.04631C21.7434 7.7781 21.254 7.38249 20.8382 6.85947C20.4359 6.32305 20.2348 5.61229 20.2348 4.7272C20.2348 3.89574 20.4426 3.17157 20.8583 2.55468C21.2741 1.9378 21.8574 1.46843 22.6084 1.14657C23.3594 0.811309 24.2177 0.643677 25.1833 0.643677C26.6316 0.643677 27.805 0.999057 28.7036 1.70982C29.6155 2.40717 30.1184 3.38614 30.2122 4.64673H27.1144C27.0876 4.16395 26.8797 3.76834 26.4908 3.4599C26.1153 3.13804 25.6124 2.97712 24.9821 2.97712C24.4323 2.97712 23.9897 3.11793 23.6545 3.39955C23.3326 3.68117 23.1717 4.09019 23.1717 4.62661C23.1717 5.00211 23.2924 5.31726 23.5338 5.57206C23.7886 5.81345 24.097 6.01461 24.4591 6.17554C24.8346 6.32305 25.3576 6.49739 26.0281 6.69855C26.9401 6.96676 27.6843 7.23497 28.261 7.50318C28.8377 7.77139 29.3339 8.17371 29.7496 8.71013C30.1653 9.24656 30.3732 9.95061 30.3732 10.8223C30.3732 11.5733 30.1787 12.2706 29.7898 12.9143C29.4009 13.5581 28.831 14.0744 28.08 14.4633C27.329 14.8388 26.4372 15.0265 25.4045 15.0265Z" fill="white"/>
<path d="M2.06299 9.66113V7.59863H0.000488281L2.06299 9.66113ZM2.13623 2.44629V7.52637H7.21631L8.65186 6.09082L3.57178 1.01074L2.13623 2.44629Z" fill="white"/>
<path d="M13.0837 7.50562V9.56812H15.1462L13.0837 7.50562ZM13.0114 14.7205V9.64038H7.93134L6.49481 11.0769L11.5749 16.157L13.0114 14.7205Z" fill="white"/>
<path d="M8.55627 1.00989V3.07239H6.49377L8.55627 1.00989ZM8.62952 8.22668V3.14465H13.7076L15.1442 4.58118L10.0641 9.66125L8.62952 8.22668Z" fill="white"/>
<path d="M6.58984 16.157V14.0945H8.65234L6.58984 16.157ZM6.5166 8.94312V14.0222H1.43555L0 12.5867L5.08008 7.50659L6.5166 8.94312Z" fill="white"/>
</svg>
