<svg width="63" height="17" viewBox="0 0 63 17" fill="none" xmlns="http://www.w3.org/2000/svg">
<rect x="0.5" y="0.5" width="62" height="16" rx="8" fill="white" stroke="#E3E2E0"/>
<circle cx="8.5" cy="8.5" r="4.5" fill="#00C898"/>
<rect x="6" y="8" width="5" height="1" rx="0.5" fill="white"/>
<path d="M14.82 12V5.4H16.49L18.56 10.81H18.61L20.67 5.4H22.27V12H21.23L21.3 6.5H21.21L19.03 12H18.03L15.87 6.5H15.78L15.85 12H14.82ZM23.832 12V6.8H24.912V12H23.832ZM24.372 5.93C24.1387 5.93 23.962 5.88333 23.842 5.79C23.722 5.69 23.662 5.54333 23.662 5.35C23.662 5.16333 23.722 5.02 23.842 4.92C23.962 4.82 24.1387 4.77 24.372 4.77C24.612 4.77 24.792 4.82 24.912 4.92C25.032 5.02 25.092 5.16333 25.092 5.35C25.092 5.54333 25.032 5.69 24.912 5.79C24.792 5.88333 24.612 5.93 24.372 5.93ZM26.4199 12V8.8V6.8H27.3599L27.2999 8.42H27.4699C27.5633 8.02 27.6866 7.69333 27.8399 7.44C27.9999 7.18 28.1999 6.98667 28.4399 6.86C28.6866 6.73333 28.9733 6.67 29.2999 6.67C29.8799 6.67 30.3199 6.87667 30.6199 7.29C30.9266 7.70333 31.0799 8.33333 31.0799 9.18V12H29.9799V9.29C29.9799 8.71 29.8933 8.28667 29.7199 8.02C29.5466 7.74667 29.2866 7.61 28.9399 7.61C28.6399 7.61 28.3833 7.70667 28.1699 7.9C27.9633 8.08667 27.8033 8.33333 27.6899 8.64C27.5766 8.94667 27.5133 9.28 27.4999 9.64V12H26.4199ZM32.5039 12V6.8H33.5839V12H32.5039ZM33.0439 5.93C32.8106 5.93 32.6339 5.88333 32.5139 5.79C32.3939 5.69 32.3339 5.54333 32.3339 5.35C32.3339 5.16333 32.3939 5.02 32.5139 4.92C32.6339 4.82 32.8106 4.77 33.0439 4.77C33.2839 4.77 33.4639 4.82 33.5839 4.92C33.7039 5.02 33.7639 5.16333 33.7639 5.35C33.7639 5.54333 33.7039 5.69 33.5839 5.79C33.4639 5.88333 33.2839 5.93 33.0439 5.93ZM35.0918 12V8.74V6.8H36.0118L35.9518 8.42H36.1318C36.2185 8.02667 36.3351 7.70333 36.4818 7.45C36.6351 7.19 36.8185 6.99667 37.0318 6.87C37.2518 6.73667 37.5051 6.67 37.7918 6.67C38.1118 6.67 38.3751 6.74667 38.5818 6.9C38.7951 7.05333 38.9551 7.26 39.0618 7.52C39.1751 7.78 39.2351 8.07333 39.2418 8.4H39.4018C39.4885 8.02 39.6085 7.70333 39.7618 7.45C39.9218 7.19 40.1185 6.99667 40.3518 6.87C40.5851 6.73667 40.8451 6.67 41.1318 6.67C41.4051 6.67 41.6451 6.72667 41.8518 6.84C42.0585 6.94667 42.2318 7.10667 42.3718 7.32C42.5118 7.53333 42.6151 7.8 42.6818 8.12C42.7551 8.43333 42.7918 8.79667 42.7918 9.21V12H41.7018V9.35C41.7018 8.96333 41.6685 8.64333 41.6018 8.39C41.5351 8.13667 41.4318 7.94667 41.2918 7.82C41.1518 7.69333 40.9751 7.63 40.7618 7.63C40.5218 7.63 40.3085 7.71333 40.1218 7.88C39.9418 8.04 39.7951 8.26333 39.6818 8.55C39.5685 8.83667 39.4985 9.16667 39.4718 9.54V12H38.4018V9.42C38.4018 9.02 38.3685 8.69 38.3018 8.43C38.2351 8.16333 38.1318 7.96333 37.9918 7.83C37.8518 7.69667 37.6751 7.63 37.4618 7.63C37.2085 7.63 36.9885 7.71667 36.8018 7.89C36.6218 8.05667 36.4785 8.28667 36.3718 8.58C36.2651 8.87333 36.1985 9.20333 36.1718 9.57V12H35.0918ZM44.2129 12V6.8H45.2929V12H44.2129ZM44.7529 5.93C44.5196 5.93 44.3429 5.88333 44.2229 5.79C44.1029 5.69 44.0429 5.54333 44.0429 5.35C44.0429 5.16333 44.1029 5.02 44.2229 4.92C44.3429 4.82 44.5196 4.77 44.7529 4.77C44.9929 4.77 45.1729 4.82 45.2929 4.92C45.4129 5.02 45.4729 5.16333 45.4729 5.35C45.4729 5.54333 45.4129 5.69 45.2929 5.79C45.1729 5.88333 44.9929 5.93 44.7529 5.93ZM46.4008 12V11.05L49.2608 7.83V7.7H46.4408V6.8H50.6808V7.72L47.7708 10.96V11.09H50.7008V12H46.4008ZM54.0224 12.13C53.6091 12.13 53.2424 12.07 52.9224 11.95C52.6024 11.8233 52.3324 11.6467 52.1124 11.42C51.8924 11.1867 51.7258 10.91 51.6124 10.59C51.4991 10.2633 51.4424 9.89667 51.4424 9.49C51.4424 9.08333 51.4991 8.71 51.6124 8.37C51.7258 8.02333 51.8858 7.72333 52.0924 7.47C52.3058 7.21667 52.5658 7.02 52.8724 6.88C53.1858 6.74 53.5391 6.67 53.9324 6.67C54.2991 6.67 54.6258 6.73 54.9124 6.85C55.2058 6.97 55.4524 7.15333 55.6524 7.4C55.8524 7.64 56.0024 7.94333 56.1024 8.31C56.2024 8.67 56.2391 9.09333 56.2124 9.58L52.1424 9.61V8.93L55.5724 8.9L55.1924 9.32C55.2324 8.92 55.1991 8.59 55.0924 8.33C54.9858 8.07 54.8324 7.87667 54.6324 7.75C54.4324 7.62333 54.2024 7.56 53.9424 7.56C53.6491 7.56 53.3924 7.63667 53.1724 7.79C52.9591 7.93667 52.7924 8.15333 52.6724 8.44C52.5524 8.72667 52.4924 9.07 52.4924 9.47C52.4924 10.07 52.6258 10.5233 52.8924 10.83C53.1591 11.13 53.5391 11.28 54.0324 11.28C54.2391 11.28 54.4158 11.2567 54.5624 11.21C54.7091 11.1567 54.8324 11.09 54.9324 11.01C55.0324 10.9233 55.1124 10.8233 55.1724 10.71C55.2391 10.59 55.2924 10.4667 55.3324 10.34L56.2824 10.56C56.2224 10.8067 56.1291 11.0267 56.0024 11.22C55.8824 11.4067 55.7291 11.57 55.5424 11.71C55.3558 11.8433 55.1358 11.9467 54.8824 12.02C54.6358 12.0933 54.3491 12.13 54.0224 12.13Z" fill="black"/>
</svg>
