<svg width="180" height="40" viewBox="0 0 180 40" fill="none" xmlns="http://www.w3.org/2000/svg">
<path d="M172.351 34.3829L168.127 29.3231C166.959 29.6153 165.763 29.7614 164.542 29.7614C161.939 29.7614 159.548 29.1505 157.37 27.9287C155.192 26.7069 153.466 25.0203 152.191 22.8689C150.916 20.6909 150.279 18.2341 150.279 15.4984C150.279 12.7892 150.916 10.3589 152.191 8.20749C153.466 6.02953 155.192 4.32965 157.37 3.10787C159.548 1.88608 161.939 1.27519 164.542 1.27519C167.171 1.27519 169.562 1.88608 171.713 3.10787C173.891 4.32965 175.604 6.02953 176.853 8.20749C178.127 10.3589 178.765 12.7892 178.765 15.4984C178.765 17.9685 178.234 20.2261 177.171 22.2713C176.135 24.2899 174.714 25.9367 172.908 27.2116L179.283 34.3829H172.351ZM156.016 15.4984C156.016 17.3576 156.374 18.9911 157.091 20.3988C157.809 21.8065 158.805 22.8955 160.079 23.6657C161.381 24.4094 162.868 24.7813 164.542 24.7813C166.215 24.7813 167.689 24.4094 168.964 23.6657C170.239 22.8955 171.235 21.8065 171.952 20.3988C172.669 18.9911 173.028 17.3576 173.028 15.4984C173.028 13.6391 172.669 12.0189 171.952 10.6378C171.235 9.23007 170.239 8.15437 168.964 7.41068C167.689 6.66698 166.215 6.29513 164.542 6.29513C162.868 6.29513 161.381 6.66698 160.079 7.41068C158.805 8.15437 157.809 9.23007 157.091 10.6378C156.374 12.0189 156.016 13.6391 156.016 15.4984Z" fill="#595D61"/>
<path d="M146.123 1.67392V29.4828H140.545V1.67392H146.123Z" fill="#595D61"/>
<path d="M137.54 7.41024L123.875 39.9203H117.938L122.719 28.9243L113.875 7.41024H120.13L125.827 22.8286L131.604 7.41024H137.54Z" fill="#595D61"/>
<path d="M110.913 -3.8147e-06V29.4822H105.335V-3.8147e-06H110.913Z" fill="#595D61"/>
<path d="M83.9106 10.5975C84.6278 9.58819 85.6105 8.75153 86.8589 8.08752C88.1338 7.39694 89.5813 7.05166 91.2015 7.05166C93.0873 7.05166 94.7872 7.51647 96.3012 8.44609C97.8417 9.3757 99.0502 10.7037 99.9267 12.4302C100.83 14.13 101.281 16.1088 101.281 18.3664C101.281 20.6241 100.83 22.6294 99.9267 24.3824C99.0502 26.1088 97.8417 27.4502 96.3012 28.4063C94.7872 29.3625 93.0873 29.8406 91.2015 29.8406C89.5813 29.8406 88.1471 29.5086 86.8987 28.8446C85.6769 28.1806 84.6809 27.3439 83.9106 26.3346V40H78.3329V7.41022H83.9106V10.5975ZM95.584 18.3664C95.584 17.0384 95.3052 15.8963 94.7474 14.9401C94.2162 13.9574 93.499 13.2137 92.596 12.7091C91.7195 12.2044 90.7633 11.9521 89.7274 11.9521C88.7181 11.9521 87.7619 12.2177 86.8589 12.7489C85.9824 13.2535 85.2652 13.9972 84.7075 14.98C84.1762 15.9627 83.9106 17.1181 83.9106 18.4461C83.9106 19.7742 84.1762 20.9295 84.7075 21.9123C85.2652 22.895 85.9824 23.652 86.8589 24.1832C87.7619 24.6879 88.7181 24.9402 89.7274 24.9402C90.7633 24.9402 91.7195 24.6746 92.596 24.1434C93.499 23.6122 94.2162 22.8552 94.7474 21.8724C95.3052 20.8897 95.584 19.721 95.584 18.3664Z" fill="#595D61"/>
<path d="M56.911 10.5975C57.6282 9.58819 58.6109 8.75153 59.8593 8.08752C61.1342 7.39694 62.5817 7.05166 64.2019 7.05166C66.0877 7.05166 67.7876 7.51647 69.3016 8.44609C70.8421 9.3757 72.0506 10.7037 72.9271 12.4302C73.8301 14.13 74.2817 16.1088 74.2817 18.3664C74.2817 20.6241 73.8301 22.6294 72.9271 24.3824C72.0506 26.1088 70.8421 27.4502 69.3016 28.4063C67.7876 29.3625 66.0877 29.8406 64.2019 29.8406C62.5817 29.8406 61.1474 29.5086 59.8991 28.8446C58.6773 28.1806 57.6813 27.3439 56.911 26.3346V40H51.3333V7.41022H56.911V10.5975ZM68.5844 18.3664C68.5844 17.0384 68.3055 15.8963 67.7478 14.9401C67.2166 13.9574 66.4994 13.2137 65.5964 12.7091C64.7199 12.2044 63.7637 11.9521 62.7278 11.9521C61.7185 11.9521 60.7623 12.2177 59.8593 12.7489C58.9828 13.2535 58.2656 13.9972 57.7078 14.98C57.1766 15.9627 56.911 17.1181 56.911 18.4461C56.911 19.7742 57.1766 20.9295 57.7078 21.9123C58.2656 22.895 58.9828 23.652 59.8593 24.1832C60.7623 24.6879 61.7185 24.9402 62.7278 24.9402C63.7637 24.9402 64.7199 24.6746 65.5964 24.1434C66.4994 23.6122 67.2166 22.8552 67.7478 21.8724C68.3055 20.8897 68.5844 19.721 68.5844 18.3664Z" fill="#595D61"/>
<path d="M45.8295 7.41024V29.482H40.2119V26.6932C39.4948 27.6494 38.5519 28.4063 37.3832 28.9641C36.2411 29.4953 34.9927 29.7609 33.6381 29.7609C31.9117 29.7609 30.3845 29.4024 29.0564 28.6852C27.7284 27.9415 26.6793 26.8658 25.909 25.4581C25.1653 24.0239 24.7935 22.324 24.7935 20.3585V7.41024H30.3712V19.5617C30.3712 21.3147 30.8094 22.6693 31.6859 23.6254C32.5624 24.5551 33.7577 25.0199 35.2716 25.0199C36.8121 25.0199 38.0206 24.5551 38.8971 23.6254C39.7736 22.6693 40.2119 21.3147 40.2119 19.5617V7.41024H45.8295Z" fill="#595D61"/>
<path d="M10.3154 29.7611C8.37646 29.7611 6.62346 29.4291 5.05638 28.765C3.51586 28.101 2.29408 27.1449 1.39101 25.8965C0.487953 24.6482 0.0231426 23.1741 -0.00341797 21.4742H5.97272C6.0524 22.6163 6.45081 23.5193 7.16795 24.1834C7.91165 24.8474 8.92095 25.1794 10.1959 25.1794C11.4973 25.1794 12.5199 24.8739 13.2636 24.263C14.0073 23.6256 14.3792 22.8022 14.3792 21.7929C14.3792 20.9695 14.1268 20.2922 13.6222 19.761C13.1175 19.2298 12.4801 18.8181 11.7098 18.526C10.9661 18.2072 9.93026 17.8619 8.60223 17.4901C6.7961 16.9589 5.32199 16.441 4.17988 15.9363C3.06433 15.4051 2.09487 14.6216 1.27149 13.5857C0.474673 12.5233 0.0762639 11.1156 0.0762639 9.36257C0.0762639 7.71582 0.487954 6.28155 1.31133 5.05976C2.13471 3.83798 3.2901 2.90836 4.77749 2.27091C6.26489 1.60689 7.96477 1.27489 9.87713 1.27489C12.7457 1.27489 15.0697 1.97874 16.8493 3.38645C18.6554 4.7676 19.6514 6.70652 19.8374 9.20321H13.7019C13.6487 8.24703 13.2371 7.46349 12.4668 6.8526C11.7231 6.21515 10.7271 5.89642 9.47872 5.89642C8.38974 5.89642 7.51324 6.17531 6.84922 6.73308C6.21177 7.29085 5.89304 8.10094 5.89304 9.16337C5.89304 9.90706 6.13209 10.5312 6.61018 11.0359C7.11483 11.514 7.72572 11.9124 8.44286 12.2311C9.18656 12.5233 10.2224 12.8686 11.5505 13.267C13.3566 13.7982 14.8307 14.3294 15.9728 14.8606C17.1149 15.3918 18.0976 16.1886 18.921 17.2511C19.7444 18.3135 20.1561 19.7079 20.1561 21.4343C20.1561 22.9217 19.771 24.3029 19.0007 25.5778C18.2304 26.8527 17.1016 27.8753 15.6142 28.6455C14.1268 29.3892 12.3606 29.7611 10.3154 29.7611Z" fill="#595D61"/>
</svg>
