<svg width="14" height="14" viewBox="0 0 14 14" fill="none" xmlns="http://www.w3.org/2000/svg">
<path d="M4.53942 1.16629C4.67746 1.02825 12.2001 1.1422 12.3783 1.17704C12.4005 1.18138 12.4215 1.18969 12.4427 1.19657C12.4563 1.20096 12.4705 1.20381 12.4838 1.20926C12.5112 1.22054 12.5368 1.235 12.5619 1.25028C12.5681 1.25404 12.5754 1.25602 12.5814 1.26004C12.6743 1.32168 12.7471 1.41076 12.7904 1.51493C12.7975 1.53206 12.8017 1.55004 12.807 1.56766C12.8228 1.61967 12.8343 1.67454 12.8343 1.73172L12.8343 9.46122C12.8343 9.77283 12.5814 10.0254 12.2699 10.0257C11.9581 10.0257 11.7045 9.77299 11.7045 9.46122L11.7045 3.09403L2.13122 12.6682C1.91076 12.8887 1.55284 12.8887 1.33239 12.6682C1.11195 12.4478 1.11194 12.0899 1.33239 11.8694L10.9066 2.29618L4.53942 2.29618C4.2278 2.29618 3.97522 2.04328 3.97497 1.73172C3.97497 1.41995 4.22765 1.16629 4.53942 1.16629Z" fill="#01D296"/>
<path d="M4.53942 1.16629V1.66629C4.67203 1.66629 4.7992 1.61362 4.89297 1.51985L4.53942 1.16629ZM12.3783 1.17704L12.2824 1.66775L12.2824 1.66776L12.3783 1.17704ZM12.4427 1.19657L12.2887 1.67223L12.2889 1.67233L12.4427 1.19657ZM12.4838 1.20926L12.6739 0.746809L12.6735 0.746658L12.4838 1.20926ZM12.5619 1.25028L12.3017 1.67725L12.3018 1.67729L12.5619 1.25028ZM12.5814 1.26004L12.3049 1.67665L12.305 1.67669L12.5814 1.26004ZM12.7904 1.51493L13.2522 1.32337L13.2521 1.323L12.7904 1.51493ZM12.807 1.56766L12.3285 1.71281L12.3286 1.71305L12.807 1.56766ZM12.2699 10.0257V10.5257H12.2703L12.2699 10.0257ZM11.7045 3.09403L12.2045 3.09403C12.2045 2.89179 12.0826 2.70947 11.8958 2.63208C11.7089 2.5547 11.4939 2.59748 11.3509 2.74049L11.7045 3.09403ZM2.13122 12.6682L2.48477 13.0218L2.48479 13.0218L2.13122 12.6682ZM1.33239 12.6682L0.978821 13.0218L0.978834 13.0218L1.33239 12.6682ZM1.33239 11.8694L0.978853 11.5158L0.978835 11.5159L1.33239 11.8694ZM10.9066 2.29618L11.2601 2.64975C11.4032 2.50675 11.4459 2.29169 11.3686 2.10485C11.2912 1.918 11.1088 1.79618 10.9066 1.79618V2.29618ZM3.97497 1.73172H3.47497L3.47497 1.73213L3.97497 1.73172ZM4.53942 1.16629L4.89297 1.51985C4.81232 1.6005 4.72639 1.62839 4.7192 1.63095C4.69513 1.63954 4.67823 1.643 4.67609 1.64345C4.67052 1.64462 4.67663 1.64311 4.70166 1.64042C4.74903 1.63533 4.82494 1.63004 4.93141 1.62517C5.14191 1.61554 5.44092 1.60888 5.80305 1.6048C6.52567 1.59667 7.48075 1.59903 8.43974 1.60682C9.39816 1.6146 10.3578 1.62777 11.0885 1.64116C11.454 1.64786 11.7613 1.6546 11.9821 1.66072C12.0928 1.66379 12.1801 1.66665 12.2415 1.66922C12.2725 1.67052 12.2946 1.67164 12.3089 1.67255C12.3377 1.67437 12.3152 1.67416 12.2824 1.66775L12.3783 1.17704L12.4742 0.686325C12.4303 0.677732 12.3822 0.675189 12.3721 0.674549C12.3475 0.672987 12.3172 0.671513 12.2833 0.670094C12.2149 0.667235 12.1222 0.664216 12.0098 0.661102C11.7846 0.654861 11.4738 0.648058 11.1069 0.641332C10.3727 0.627876 9.40961 0.614658 8.44785 0.606851C7.48666 0.599048 6.52406 0.596628 5.7918 0.604867C5.42648 0.608978 5.11375 0.615786 4.88573 0.626215C4.77295 0.631373 4.67291 0.637754 4.59483 0.646145C4.55713 0.650195 4.51314 0.655878 4.47101 0.664708C4.45058 0.668988 4.41877 0.676405 4.38328 0.689061C4.36468 0.695696 4.27083 0.727773 4.18587 0.812741L4.53942 1.16629ZM12.3783 1.17704L12.2824 1.66776C12.2732 1.66596 12.2661 1.66413 12.2618 1.66294C12.2576 1.66178 12.2552 1.661 12.256 1.66124C12.2571 1.66163 12.2588 1.6622 12.2649 1.66428C12.2697 1.66593 12.2788 1.66905 12.2887 1.67223L12.4427 1.19657L12.5968 0.7209C12.596 0.720646 12.5945 0.720143 12.5888 0.718172C12.5842 0.716625 12.5753 0.713556 12.5658 0.710462C12.5467 0.704224 12.514 0.694096 12.4741 0.686308L12.3783 1.17704ZM12.4427 1.19657L12.2889 1.67233C12.301 1.67624 12.3113 1.67919 12.3174 1.68091C12.3205 1.68177 12.3234 1.68256 12.3249 1.68298C12.3268 1.6835 12.3273 1.68366 12.3277 1.68377C12.3285 1.68398 12.325 1.68302 12.3197 1.6813C12.3142 1.67951 12.3052 1.67644 12.294 1.67187L12.4838 1.20926L12.6735 0.746658C12.6394 0.73268 12.6101 0.724387 12.599 0.721269C12.5959 0.720402 12.593 0.719606 12.5915 0.719178C12.5896 0.718644 12.589 0.718482 12.5886 0.71837C12.5878 0.718147 12.5912 0.719097 12.5965 0.720808L12.4427 1.19657ZM12.4838 1.20926L12.2937 1.67172C12.2886 1.66964 12.2864 1.66838 12.2879 1.66919C12.2896 1.6701 12.2936 1.67232 12.3017 1.67725L12.5619 1.25028L12.8221 0.823308C12.7892 0.803292 12.7374 0.772946 12.6739 0.746809L12.4838 1.20926ZM12.5619 1.25028L12.3018 1.67729C12.3235 1.69053 12.3421 1.69971 12.3532 1.70496C12.3589 1.70765 12.3636 1.70977 12.3665 1.71103C12.3679 1.71167 12.3692 1.71221 12.3699 1.71253C12.3702 1.71269 12.3706 1.71284 12.3708 1.71292C12.371 1.71302 12.3711 1.71305 12.3711 1.71307C12.3715 1.71322 12.3696 1.71242 12.3671 1.71126C12.3644 1.71004 12.3599 1.70798 12.3544 1.70524C12.3436 1.69988 12.3258 1.69051 12.3049 1.67665L12.5814 1.26004L12.8579 0.843437C12.834 0.827565 12.813 0.816441 12.7989 0.809459C12.7856 0.802837 12.7742 0.797919 12.7723 0.79706C12.7699 0.796044 12.7713 0.796636 12.7719 0.796892C12.773 0.797409 12.7761 0.798779 12.7802 0.800693C12.788 0.804389 12.8034 0.811911 12.822 0.82327L12.5619 1.25028ZM12.5814 1.26004L12.305 1.67669C12.3134 1.68225 12.3226 1.69226 12.3287 1.70685L12.7904 1.51493L13.2521 1.323C13.1716 1.12925 13.0353 0.961113 12.8578 0.843401L12.5814 1.26004ZM12.7904 1.51493L12.3285 1.70649C12.3251 1.69818 12.3228 1.69156 12.3214 1.6875C12.3201 1.68355 12.3194 1.68123 12.3196 1.6819C12.3197 1.68219 12.3199 1.68288 12.3203 1.68435C12.3208 1.68614 12.3211 1.68736 12.322 1.69032C12.3233 1.69503 12.3257 1.70344 12.3285 1.71281L12.807 1.56766L13.2855 1.42252C13.2856 1.42307 13.2855 1.42262 13.2843 1.41847C13.2835 1.41562 13.2813 1.40785 13.2791 1.40032C13.2746 1.38474 13.2659 1.35624 13.2522 1.32337L12.7904 1.51493ZM12.807 1.56766L12.3286 1.71305C12.3322 1.72492 12.3337 1.73185 12.3343 1.73518C12.3349 1.7383 12.3343 1.73679 12.3343 1.73172H12.8343L13.3343 1.73172C13.3343 1.60806 13.3095 1.50148 13.2854 1.42227L12.807 1.56766ZM12.8343 1.73172H12.3343L12.3343 9.46122H12.8343H13.3343L13.3343 1.73172L12.8343 1.73172ZM12.8343 9.46122H12.3343C12.3343 9.49628 12.3056 9.52564 12.2695 9.52567L12.2699 10.0257L12.2703 10.5257C12.8573 10.5252 13.3343 10.0494 13.3343 9.46122H12.8343ZM12.2699 10.0257V9.52567C12.2331 9.52567 12.2045 9.49572 12.2045 9.46122H11.7045H11.2045C11.2045 10.0503 11.6831 10.5257 12.2699 10.5257V10.0257ZM11.7045 9.46122H12.2045L12.2045 3.09403L11.7045 3.09403H11.2045L11.2045 9.46122H11.7045ZM11.7045 3.09403L11.3509 2.74049L1.77764 12.3147L2.13122 12.6682L2.48479 13.0218L12.058 3.44756L11.7045 3.09403ZM2.13122 12.6682L1.77766 12.3147C1.75247 12.3399 1.71114 12.3399 1.68594 12.3147L1.33239 12.6682L0.978834 13.0218C1.39455 13.4375 2.06905 13.4375 2.48477 13.0218L2.13122 12.6682ZM1.33239 12.6682L1.68595 12.3147C1.66074 12.2895 1.66077 12.2481 1.68594 12.223L1.33239 11.8694L0.978835 11.5159C0.563107 11.9316 0.56315 12.6061 0.978821 13.0218L1.33239 12.6682ZM1.33239 11.8694L1.68592 12.223L11.2601 2.64975L10.9066 2.29618L10.5531 1.94261L0.978853 11.5158L1.33239 11.8694ZM10.9066 2.29618V1.79618L4.53942 1.79618V2.29618V2.79618L10.9066 2.79618V2.29618ZM4.53942 2.29618V1.79618C4.50435 1.79618 4.475 1.76746 4.47497 1.73131L3.97497 1.73172L3.47497 1.73213C3.47545 2.3191 3.95125 2.79618 4.53942 2.79618V2.29618ZM3.97497 1.73172L4.47497 1.73172C4.47497 1.69497 4.50491 1.66629 4.53942 1.66629V1.16629V0.666294C3.95038 0.666294 3.47497 1.14493 3.47497 1.73172H3.97497Z" fill="#01D296"/>
</svg>
