<svg width="14" height="14" viewBox="0 0 14 14" fill="none" xmlns="http://www.w3.org/2000/svg">
<path d="M4.53863 1.16598C4.67659 1.02802 12.1994 1.14202 12.3775 1.17672C12.3998 1.18106 12.4207 1.18938 12.442 1.19625C12.4556 1.20064 12.4697 1.2035 12.483 1.20895C12.5104 1.22022 12.536 1.23469 12.5611 1.24996C12.5673 1.25372 12.5746 1.25571 12.5806 1.25973C12.6124 1.28077 12.6417 1.30515 12.6685 1.33199L12.7408 1.41988C12.7503 1.43432 12.7562 1.45072 12.7642 1.46578C12.7731 1.48232 12.7834 1.49812 12.7906 1.51559C12.7967 1.53042 12.7995 1.54628 12.8043 1.56149C12.8212 1.61511 12.8335 1.67121 12.8336 1.73043L12.8336 9.4609C12.8336 9.77264 12.5808 10.0253 12.2691 10.0254C11.9573 10.0254 11.7046 9.77267 11.7046 9.4609L11.7046 3.09371L2.13043 12.6679C1.91007 12.8881 1.553 12.888 1.33258 12.6679C1.11212 12.4475 1.11212 12.0896 1.33258 11.8691L10.9068 2.29488L4.53863 2.29488C4.22698 2.29475 3.97418 2.04212 3.97418 1.73043C3.97441 1.41894 4.22712 1.16612 4.53863 1.16598Z" fill="black"/>
<path d="M4.53863 1.16598L4.53886 1.66598C4.67139 1.66592 4.79847 1.61325 4.89219 1.51953L4.53863 1.16598ZM12.3775 1.17672L12.2819 1.66749L12.282 1.66751L12.3775 1.17672ZM12.442 1.19625L12.2881 1.67201L12.2884 1.6721L12.442 1.19625ZM12.483 1.20895L12.6728 0.746389L12.6724 0.746239L12.483 1.20895ZM12.5611 1.24996L12.3011 1.67706L12.3012 1.6771L12.5611 1.24996ZM12.5806 1.25973L12.3043 1.67646L12.3044 1.6765L12.5806 1.25973ZM12.6685 1.33199L13.0547 1.01444C13.0445 1.00202 13.0337 0.990108 13.0224 0.978732L12.6685 1.33199ZM12.7408 1.41988L13.158 1.14428C13.1484 1.12977 13.138 1.11577 13.127 1.10233L12.7408 1.41988ZM12.7642 1.46578L12.3235 1.7019L12.3236 1.70212L12.7642 1.46578ZM12.7906 1.51559L13.2529 1.32503L13.2527 1.32466L12.7906 1.51559ZM12.8043 1.56149L12.3274 1.71192L12.3275 1.71219L12.8043 1.56149ZM12.8336 1.73043L13.3336 1.73043V1.73007L12.8336 1.73043ZM12.2691 10.0254V10.5254H12.2692L12.2691 10.0254ZM11.7046 3.09371L12.2046 3.09371C12.2046 2.89148 12.0828 2.70916 11.896 2.63177C11.7092 2.55438 11.4941 2.59716 11.3511 2.74016L11.7046 3.09371ZM2.13043 12.6679L2.48382 13.0217L2.48398 13.0215L2.13043 12.6679ZM1.33258 12.6679L0.979026 13.0215L0.979312 13.0218L1.33258 12.6679ZM1.33258 11.8691L1.68613 12.2227H1.68613L1.33258 11.8691ZM10.9068 2.29488L11.2604 2.64844C11.4034 2.50544 11.4461 2.29038 11.3687 2.10354C11.2913 1.91671 11.109 1.79488 10.9068 1.79488V2.29488ZM4.53863 2.29488L4.53841 2.79488H4.53863V2.29488ZM3.97418 1.73043L3.47418 1.73007V1.73043H3.97418ZM4.53863 1.16598L4.89219 1.51953C4.81149 1.60023 4.72551 1.62811 4.71835 1.63066C4.69427 1.63925 4.67737 1.64271 4.67524 1.64316C4.66968 1.64432 4.6758 1.64281 4.70083 1.64013C4.7482 1.63504 4.82411 1.62975 4.93059 1.62489C5.14108 1.61527 5.44009 1.60861 5.80223 1.60454C6.52486 1.59643 7.47995 1.5988 8.43895 1.60658C9.39739 1.61437 10.3571 1.62754 11.0878 1.64092C11.4533 1.64761 11.7606 1.65434 11.9814 1.66045C12.092 1.66351 12.1793 1.66637 12.2408 1.66893C12.2718 1.67022 12.2939 1.67135 12.3082 1.67225C12.337 1.67407 12.3146 1.67386 12.2819 1.66749L12.3775 1.17672L12.4731 0.685951C12.4293 0.67741 12.3814 0.674879 12.3713 0.67424C12.3466 0.672683 12.3164 0.671214 12.2825 0.6698C12.2141 0.666948 12.1214 0.663936 12.009 0.660828C11.7838 0.654598 11.473 0.647804 11.1061 0.641085C10.3719 0.627641 9.40884 0.614427 8.44707 0.606617C7.48587 0.598812 6.52326 0.596382 5.791 0.604607C5.42568 0.608711 5.11295 0.615511 4.88494 0.625929C4.77217 0.631082 4.67214 0.637458 4.59406 0.645841C4.55638 0.649888 4.5124 0.655567 4.47027 0.664389C4.44985 0.668665 4.41804 0.676077 4.38256 0.688726C4.36399 0.695347 4.27009 0.72742 4.18508 0.812425L4.53863 1.16598ZM12.3775 1.17672L12.282 1.66751C12.2726 1.66568 12.2654 1.66383 12.261 1.66262C12.2567 1.66143 12.2543 1.66064 12.255 1.66088C12.2562 1.66127 12.2579 1.66183 12.2641 1.66395C12.269 1.66563 12.2782 1.66878 12.2881 1.67201L12.442 1.19625L12.5958 0.720496C12.5951 0.72029 12.5937 0.71982 12.588 0.717874C12.5836 0.716361 12.5747 0.713282 12.5652 0.710194C12.5461 0.703954 12.5132 0.69375 12.473 0.685934L12.3775 1.17672ZM12.442 1.19625L12.2884 1.6721C12.3004 1.67596 12.3106 1.67888 12.3166 1.68058C12.3196 1.68143 12.3225 1.68222 12.324 1.68263C12.3259 1.68315 12.3264 1.68331 12.3268 1.68342C12.3275 1.68362 12.3241 1.68268 12.3189 1.68097C12.3134 1.6792 12.3045 1.67616 12.2935 1.67166L12.483 1.20895L12.6724 0.746239C12.6386 0.732374 12.6095 0.724124 12.5983 0.720989C12.5953 0.72012 12.5924 0.719324 12.5908 0.718889C12.5889 0.718349 12.5883 0.718182 12.5878 0.71806C12.587 0.717819 12.5903 0.718739 12.5955 0.720403L12.442 1.19625ZM12.483 1.20895L12.2931 1.67151C12.2879 1.66934 12.2855 1.66801 12.287 1.66881C12.2887 1.66973 12.2928 1.67197 12.3011 1.67706L12.5611 1.24996L12.8211 0.822867C12.7888 0.803204 12.7368 0.772641 12.6728 0.746389L12.483 1.20895ZM12.5611 1.24996L12.3012 1.6771C12.3228 1.69026 12.3413 1.6994 12.3524 1.70463C12.3581 1.70732 12.3628 1.70943 12.3656 1.71068C12.3671 1.71132 12.3683 1.71186 12.369 1.71218C12.3694 1.71234 12.3697 1.71249 12.3699 1.71256C12.3701 1.71266 12.3702 1.71269 12.3702 1.71271C12.3706 1.71286 12.3687 1.71207 12.3662 1.71091C12.3635 1.7097 12.3591 1.70764 12.3536 1.70491C12.3428 1.69957 12.3251 1.69025 12.3043 1.67646L12.5806 1.25973L12.8569 0.842994C12.8331 0.827202 12.8122 0.816122 12.7982 0.809158C12.7848 0.802552 12.7735 0.797646 12.7716 0.796783C12.7693 0.795766 12.7706 0.796357 12.7712 0.796607C12.7723 0.79712 12.7754 0.798482 12.7794 0.800386C12.7872 0.804063 12.8025 0.811543 12.821 0.822829L12.5611 1.24996ZM12.5806 1.25973L12.3044 1.6765C12.3062 1.67769 12.3098 1.68036 12.3147 1.68526L12.6685 1.33199L13.0224 0.978732C12.9736 0.929935 12.9185 0.88384 12.8569 0.842959L12.5806 1.25973ZM12.6685 1.33199L12.2823 1.64955L12.3546 1.73744L12.7408 1.41988L13.127 1.10233L13.0547 1.01444L12.6685 1.33199ZM12.7408 1.41988L12.3236 1.69549C12.315 1.68248 12.309 1.67169 12.3055 1.66502C12.3021 1.65862 12.3001 1.65433 12.3005 1.65522C12.3007 1.65568 12.301 1.65628 12.3021 1.65861C12.3029 1.66046 12.3045 1.66387 12.3063 1.66757C12.3097 1.67493 12.3157 1.6874 12.3235 1.7019L12.7642 1.46578L13.205 1.22967C13.2069 1.23334 13.2084 1.23625 13.2093 1.2381C13.2098 1.23904 13.2101 1.23978 13.2104 1.24025C13.2106 1.24072 13.2107 1.241 13.2107 1.241C13.2107 1.24101 13.2107 1.24096 13.2106 1.24085C13.2106 1.24074 13.2105 1.24057 13.2104 1.24035C13.2102 1.23985 13.2099 1.23925 13.2095 1.23829C13.2087 1.23671 13.2072 1.23341 13.2056 1.22998C13.1998 1.2177 13.1835 1.18297 13.158 1.14428L12.7408 1.41988ZM12.7642 1.46578L12.3236 1.70212C12.3289 1.71207 12.3338 1.72066 12.3366 1.72557C12.3373 1.72686 12.3381 1.72811 12.3386 1.72909C12.3392 1.73015 12.3397 1.73095 12.3401 1.7317C12.341 1.73321 12.3414 1.73389 12.3415 1.73418C12.3419 1.73485 12.3405 1.73233 12.3383 1.728C12.336 1.72354 12.3325 1.71617 12.3285 1.70651L12.7906 1.51559L13.2527 1.32466C13.2379 1.28896 13.2225 1.26071 13.2145 1.24649C13.2109 1.23996 13.2064 1.23221 13.2055 1.2306C13.2037 1.22735 13.2039 1.22777 13.2048 1.22945L12.7642 1.46578ZM12.7906 1.51559L12.3283 1.70615C12.323 1.69325 12.3195 1.68278 12.3175 1.67634C12.3156 1.67016 12.3145 1.66609 12.3147 1.66696C12.3148 1.6674 12.315 1.66802 12.3156 1.67024C12.316 1.67202 12.3169 1.67531 12.3179 1.67886C12.3197 1.68594 12.323 1.69789 12.3274 1.71192L12.8043 1.56149L13.2811 1.41105C13.2831 1.41748 13.2842 1.42175 13.2841 1.42111C13.284 1.4208 13.2838 1.42024 13.2833 1.41815C13.2829 1.4165 13.282 1.41326 13.2811 1.40984C13.2778 1.39756 13.2689 1.36392 13.2529 1.32503L12.7906 1.51559ZM12.8043 1.56149L12.3275 1.71219C12.3315 1.72466 12.333 1.73163 12.3336 1.73474C12.3341 1.73756 12.3336 1.73585 12.3336 1.73079L12.8336 1.73043L13.3336 1.73007C13.3335 1.60195 13.3068 1.49238 13.281 1.41078L12.8043 1.56149ZM12.8336 1.73043H12.3336L12.3336 9.4609H12.8336H13.3336L13.3336 1.73043L12.8336 1.73043ZM12.8336 9.4609H12.3336C12.3336 9.49641 12.3048 9.52535 12.269 9.52535L12.2691 10.0254L12.2692 10.5254C12.8569 10.5252 13.3336 10.0489 13.3336 9.4609H12.8336ZM12.2691 10.0254V9.52535C12.2335 9.52535 12.2046 9.49653 12.2046 9.4609H11.7046H11.2046C11.2046 10.0488 11.6812 10.5254 12.2691 10.5254V10.0254ZM11.7046 9.4609H12.2046L12.2046 3.09371L11.7046 3.09371H11.2046L11.2046 9.4609H11.7046ZM11.7046 3.09371L11.3511 2.74016L1.77688 12.3144L2.13043 12.6679L2.48398 13.0215L12.0582 3.44727L11.7046 3.09371ZM2.13043 12.6679L1.77704 12.3142C1.75203 12.3392 1.71119 12.3394 1.68585 12.3141L1.33258 12.6679L0.979312 13.0218C1.39481 13.4366 2.06811 13.437 2.48382 13.0217L2.13043 12.6679ZM1.33258 12.6679L1.68613 12.3144C1.66094 12.2892 1.66094 12.2479 1.68613 12.2227L1.33258 11.8691L0.979027 11.5155C0.563306 11.9313 0.563306 12.6058 0.979027 13.0215L1.33258 12.6679ZM1.33258 11.8691L1.68613 12.2227L11.2604 2.64844L10.9068 2.29488L10.5532 1.94133L0.979026 11.5156L1.33258 11.8691ZM10.9068 2.29488V1.79488L4.53863 1.79488V2.29488V2.79488L10.9068 2.79488V2.29488ZM4.53863 2.29488L4.53886 1.79488C4.50295 1.79487 4.47418 1.76575 4.47418 1.73043L3.97418 1.73043H3.47418C3.47418 2.31848 3.95101 2.79462 4.53841 2.79488L4.53863 2.29488ZM3.97418 1.73043L4.47418 1.73079C4.47421 1.69502 4.50345 1.66599 4.53886 1.66598L4.53863 1.16598L4.53841 0.665979C3.95079 0.666241 3.47461 1.14285 3.47418 1.73007L3.97418 1.73043Z" fill="black"/>
</svg>
