<svg width="14" height="14" viewBox="0 0 14 14" fill="none" xmlns="http://www.w3.org/2000/svg">
<path d="M12.8341 4.53891C12.9725 4.67728 12.8597 12.2002 12.8244 12.3788C12.8208 12.3969 12.814 12.414 12.8087 12.4315C12.8034 12.4491 12.7992 12.4671 12.7921 12.4842C12.7823 12.5079 12.7688 12.5296 12.756 12.5516C12.7507 12.5607 12.7472 12.571 12.7414 12.5799C12.6999 12.6425 12.6455 12.6954 12.5831 12.7372C12.5676 12.7476 12.5506 12.7548 12.5343 12.7635C12.5184 12.772 12.5033 12.7819 12.4865 12.7889C12.4171 12.8177 12.3436 12.8329 12.2697 12.8329L4.54018 12.8329C4.22841 12.8329 3.97573 12.5802 3.97573 12.2684C3.9758 11.9567 4.22845 11.7039 4.54018 11.7039L10.9074 11.7039L1.33315 2.12973C1.11291 1.90929 1.11285 1.55228 1.33315 1.33188C1.55361 1.11142 1.91152 1.11142 2.13198 1.33188L11.7052 10.9051L11.7052 4.53891C11.7052 4.22724 11.958 3.97365 12.2697 3.97348C12.5814 3.97348 12.8341 4.22714 12.8341 4.53891Z" fill="#FF4F4F"/>
<path d="M12.8341 4.53891L12.3341 4.53891C12.3341 4.67152 12.3868 4.79869 12.4806 4.89246L12.8341 4.53891ZM12.8244 12.3788L12.3339 12.2817L12.3339 12.2818L12.8244 12.3788ZM12.8087 12.4315L12.3301 12.2869L12.33 12.2871L12.8087 12.4315ZM12.7921 12.4842L13.2542 12.6753L13.2543 12.6749L12.7921 12.4842ZM12.756 12.5516L12.3242 12.2995L12.3241 12.2997L12.756 12.5516ZM12.7414 12.5799L12.3245 12.3039L12.3244 12.3039L12.7414 12.5799ZM12.5831 12.7372L12.305 12.3217L12.3049 12.3217L12.5831 12.7372ZM12.5343 12.7635L12.2986 12.3226L12.2984 12.3227L12.5343 12.7635ZM12.4865 12.7889L12.6783 13.2506L12.6787 13.2505L12.4865 12.7889ZM12.2697 12.8329L12.27 12.3329L12.2697 12.3329L12.2697 12.8329ZM3.97573 12.2684L3.47573 12.2683L3.47573 12.2684L3.97573 12.2684ZM10.9074 11.7039L10.9074 12.2039C11.1096 12.2039 11.2919 12.0821 11.3693 11.8953C11.4467 11.7085 11.4039 11.4934 11.2609 11.3504L10.9074 11.7039ZM1.33315 2.12973L0.979435 2.48312L0.979597 2.48328L1.33315 2.12973ZM1.33315 1.33188L0.979596 0.978324L0.979516 0.978405L1.33315 1.33188ZM2.13198 1.33188L1.77842 1.68543L1.77843 1.68543L2.13198 1.33188ZM11.7052 10.9051L11.3517 11.2587C11.4947 11.4017 11.7097 11.4445 11.8966 11.3671C12.0834 11.2897 12.2052 11.1074 12.2052 10.9051L11.7052 10.9051ZM12.2697 3.97348L12.2697 3.47348L12.2694 3.47348L12.2697 3.97348ZM12.8341 4.53891L12.4806 4.89246C12.4001 4.81197 12.3722 4.72626 12.3696 4.71898C12.361 4.69491 12.3575 4.678 12.3571 4.67585C12.3559 4.67028 12.3574 4.67638 12.3601 4.7014C12.3652 4.74876 12.3705 4.82467 12.3754 4.93116C12.3851 5.14168 12.3918 5.44071 12.396 5.80288C12.4043 6.52557 12.4021 7.48071 12.3944 8.43977C12.3868 9.39827 12.3737 10.358 12.3603 11.0888C12.3537 11.4543 12.3469 11.7616 12.3408 11.9824C12.3377 12.0931 12.3348 12.1804 12.3323 12.2418C12.331 12.2728 12.3298 12.2948 12.3289 12.309C12.3271 12.338 12.3273 12.315 12.3339 12.2817L12.8244 12.3788L13.3149 12.4758C13.3236 12.4314 13.3262 12.3829 13.3269 12.3729C13.3285 12.3481 13.3299 12.3178 13.3314 12.2838C13.3343 12.2154 13.3373 12.1226 13.3404 12.0102C13.3467 11.7849 13.3535 11.474 13.3602 11.107C13.3736 10.3727 13.3867 9.4096 13.3944 8.44775C13.402 7.48647 13.4043 6.52378 13.3959 5.79143C13.3917 5.42607 13.3848 5.11328 13.3744 4.8852C13.3692 4.77239 13.3628 4.67231 13.3543 4.59419C13.3503 4.55647 13.3446 4.51245 13.3357 4.47028C13.3314 4.44983 13.324 4.41801 13.3113 4.38252C13.3046 4.36382 13.2725 4.27018 13.1877 4.18536L12.8341 4.53891ZM12.8244 12.3788L12.3339 12.2818C12.3358 12.2718 12.3378 12.264 12.3391 12.2593C12.3404 12.2548 12.3413 12.2521 12.341 12.2528C12.3409 12.2531 12.3407 12.2538 12.3402 12.2554C12.3399 12.2562 12.3396 12.2571 12.3393 12.2582C12.3389 12.2593 12.3385 12.2606 12.338 12.262C12.3363 12.2672 12.3333 12.2763 12.3301 12.2869L12.8087 12.4315L13.2874 12.5761C13.2868 12.5779 13.2866 12.5784 13.2878 12.5749C13.2884 12.5732 13.2911 12.5649 13.2933 12.5579C13.2982 12.5428 13.3075 12.5127 13.3149 12.4757L12.8244 12.3788ZM12.8087 12.4315L12.33 12.2871C12.3273 12.2961 12.325 12.3042 12.3238 12.3087C12.3222 12.3143 12.3218 12.3156 12.3215 12.3168C12.3213 12.3175 12.3219 12.3153 12.3231 12.3116C12.3244 12.3077 12.3267 12.3015 12.3299 12.2935L12.7921 12.4842L13.2543 12.6749C13.2676 12.6428 13.2761 12.6149 13.2807 12.5993C13.283 12.5916 13.2851 12.584 13.286 12.5808C13.2873 12.5764 13.2875 12.5757 13.2874 12.5758L12.8087 12.4315ZM12.7921 12.4842L12.3301 12.2931C12.3353 12.2805 12.3395 12.2733 12.3384 12.2752C12.338 12.276 12.3369 12.2779 12.3344 12.2822C12.3331 12.2844 12.3318 12.2865 12.33 12.2896C12.3284 12.2924 12.3263 12.2959 12.3242 12.2995L12.756 12.5516L13.1878 12.8037C13.1902 12.7996 13.2277 12.7392 13.2542 12.6753L12.7921 12.4842ZM12.756 12.5516L12.3241 12.2997C12.3142 12.3166 12.307 12.3311 12.3028 12.3397C12.3006 12.3441 12.2988 12.3479 12.2978 12.3501C12.2973 12.3512 12.2968 12.3522 12.2966 12.3528C12.2962 12.3535 12.2961 12.3537 12.2961 12.3538C12.2959 12.3541 12.2965 12.3528 12.2975 12.3509C12.2985 12.3489 12.3001 12.3455 12.3023 12.3414C12.3066 12.3332 12.3139 12.3198 12.3245 12.3039L12.7414 12.5799L13.1582 12.856C13.1717 12.8356 13.1817 12.8176 13.1885 12.8047C13.195 12.7922 13.1999 12.7817 13.2017 12.7779C13.2022 12.7768 13.2027 12.7758 13.2029 12.7753C13.2032 12.7747 13.2033 12.7745 13.2033 12.7744C13.2034 12.7742 13.2028 12.7755 13.2018 12.7775C13.1999 12.7814 13.1951 12.7911 13.1879 12.8035L12.756 12.5516ZM12.7414 12.5799L12.3244 12.3039C12.3227 12.3066 12.3172 12.3135 12.305 12.3217L12.5831 12.7372L12.8613 13.1526C12.9738 13.0773 13.0771 12.9785 13.1583 12.8559L12.7414 12.5799ZM12.5831 12.7372L12.3049 12.3217C12.3137 12.3159 12.3208 12.3117 12.3252 12.3091C12.3296 12.3067 12.3322 12.3054 12.3316 12.3057C12.3313 12.3058 12.3306 12.3062 12.3291 12.307C12.3283 12.3073 12.3275 12.3077 12.3264 12.3083C12.3254 12.3088 12.3241 12.3095 12.3227 12.3101C12.3176 12.3127 12.3087 12.3172 12.2986 12.3226L12.5343 12.7635L12.77 13.2045C12.7681 13.2055 12.7674 13.2058 12.7705 13.2043C12.7719 13.2036 12.78 13.1996 12.7864 13.1963C12.8008 13.1889 12.8293 13.1741 12.8614 13.1526L12.5831 12.7372ZM12.5343 12.7635L12.2984 12.3227C12.2885 12.328 12.2799 12.3328 12.275 12.3356C12.2737 12.3364 12.2725 12.3371 12.2715 12.3376C12.2704 12.3383 12.2697 12.3387 12.2689 12.3391C12.2674 12.34 12.2667 12.3404 12.2665 12.3405C12.2658 12.3409 12.2684 12.3394 12.2727 12.3372C12.2772 12.3349 12.2846 12.3314 12.2942 12.3273L12.4865 12.7889L12.6787 13.2505C12.7137 13.2359 12.7414 13.2207 12.755 13.2131C12.7611 13.2097 12.7688 13.2052 12.77 13.2045C12.7729 13.2029 12.7722 13.2033 12.7702 13.2044L12.5343 12.7635ZM12.4865 12.7889L12.2946 12.3272C12.2835 12.3318 12.2751 12.3329 12.27 12.3329L12.2697 12.8329L12.2694 13.3329C12.4121 13.3329 12.5508 13.3036 12.6783 13.2506L12.4865 12.7889ZM12.2697 12.8329L12.2697 12.3329L4.54018 12.3329L4.54018 12.8329L4.54018 13.3329L12.2697 13.3329L12.2697 12.8329ZM4.54018 12.8329L4.54018 12.3329C4.50455 12.3329 4.47573 12.304 4.47573 12.2684L3.97573 12.2684L3.47573 12.2684C3.47573 12.8563 3.95227 13.3329 4.54018 13.3329L4.54018 12.8329ZM3.97573 12.2684L4.47573 12.2685C4.47574 12.2327 4.5047 12.2039 4.54018 12.2039L4.54018 11.7039L4.54018 11.2039C3.9522 11.2039 3.47586 11.6806 3.47573 12.2683L3.97573 12.2684ZM4.54018 11.7039L4.54018 12.2039L10.9074 12.2039L10.9074 11.7039L10.9074 11.2039L4.54018 11.2039L4.54018 11.7039ZM10.9074 11.7039L11.2609 11.3504L1.6867 1.77618L1.33315 2.12973L0.979597 2.48328L10.5538 12.0575L10.9074 11.7039ZM1.33315 2.12973L1.68686 1.77634C1.66159 1.75104 1.66172 1.71043 1.68678 1.68535L1.33315 1.33188L0.979516 0.978405C0.56398 1.39413 0.56423 2.06754 0.979435 2.48312L1.33315 2.12973ZM1.33315 1.33188L1.6867 1.68543C1.7119 1.66024 1.75323 1.66024 1.77842 1.68543L2.13198 1.33188L2.48553 0.978324C2.06981 0.562604 1.39532 0.562604 0.979596 0.978324L1.33315 1.33188ZM2.13198 1.33188L1.77843 1.68543L11.3517 11.2587L11.7052 10.9051L12.0588 10.5516L2.48553 0.978324L2.13198 1.33188ZM11.7052 10.9051L12.2052 10.9051L12.2052 4.53891L11.7052 4.53891L11.2052 4.53891L11.2052 10.9051L11.7052 10.9051ZM11.7052 4.53891L12.2052 4.53891C12.2052 4.50253 12.2351 4.4735 12.2699 4.47348L12.2697 3.97348L12.2694 3.47348C11.681 3.4738 11.2052 3.95195 11.2052 4.53891L11.7052 4.53891ZM12.2697 3.97348L12.2697 4.47348C12.3042 4.47348 12.3341 4.50215 12.3341 4.53891L12.8341 4.53891L13.3341 4.53891C13.3341 3.95212 12.8587 3.47348 12.2697 3.47348L12.2697 3.97348Z" fill="#FF4F4F"/>
</svg>
