<svg width="18" height="18" viewBox="0 0 18 18" fill="none" xmlns="http://www.w3.org/2000/svg">
<path d="M17.1001 8.59148C17.126 8.61737 17.15 8.64522 17.1705 8.67572C17.183 8.69428 17.1916 8.71482 17.2016 8.73442C17.2081 8.74714 17.2161 8.75914 17.2216 8.7724C17.2331 8.79977 17.2409 8.82812 17.2479 8.85664C17.2496 8.86367 17.2533 8.87023 17.2548 8.87736C17.2697 8.9509 17.2687 9.02681 17.2541 9.1004C17.2417 9.16268 17.2174 9.21996 17.1864 9.27303C17.1624 9.31409 17.1353 9.35455 17.1001 9.38973L11.6345 14.8553C11.4141 15.0757 11.0567 15.0756 10.8362 14.8553C10.6158 14.6349 10.6158 14.2775 10.8362 14.0571L15.3385 9.55477L1.79854 9.55477C1.48691 9.55475 1.23456 9.3022 1.23437 8.99061C1.23437 8.67883 1.48746 8.42575 1.79923 8.42575L15.3378 8.42575L10.8356 3.92347C10.6153 3.70307 10.6154 3.34564 10.8356 3.12521C11.056 2.9048 11.4133 2.90488 11.6338 3.12521L17.1001 8.59148Z" fill="#FFD601"/>
<path d="M17.1001 8.59148L17.4537 8.23803L17.4536 8.23792L17.1001 8.59148ZM17.1705 8.67572L16.7554 8.95441L16.7554 8.95448L17.1705 8.67572ZM17.2016 8.73442L16.7564 8.96208L16.7566 8.96234L17.2016 8.73442ZM17.2216 8.7724L17.6829 8.57954L17.6828 8.57917L17.2216 8.7724ZM17.2479 8.85664L16.762 8.97487L16.7621 8.97494L17.2479 8.85664ZM17.2548 8.87736L16.7647 8.97674L16.7648 8.9768L17.2548 8.87736ZM17.2541 9.1004L16.7636 9.00319L16.7636 9.00326L17.2541 9.1004ZM17.1864 9.27303L16.7546 9.02092L16.7545 9.02104L17.1864 9.27303ZM10.8362 14.8553L10.4827 15.2089L10.4828 15.209L10.8362 14.8553ZM15.3385 9.55477L15.6921 9.90833C15.8351 9.76533 15.8779 9.55027 15.8005 9.36343C15.7231 9.17659 15.5408 9.05477 15.3385 9.05477L15.3385 9.55477ZM1.79854 9.55477L1.7985 10.0548L1.79854 10.0548L1.79854 9.55477ZM1.23437 8.99061L0.734375 8.99061L0.734375 8.99091L1.23437 8.99061ZM1.79923 8.42575L1.79923 8.92575L1.79923 8.92575L1.79923 8.42575ZM15.3378 8.42575L15.3378 8.92575C15.5401 8.92575 15.7224 8.80393 15.7998 8.61709C15.8772 8.43025 15.8344 8.21519 15.6914 8.0722L15.3378 8.42575ZM10.8356 3.92347L10.4819 4.27691L10.482 4.27702L10.8356 3.92347ZM10.8356 3.12521L10.482 2.77166L10.4818 2.77185L10.8356 3.12521ZM11.6338 3.12521L11.9874 2.77166L11.9873 2.77154L11.6338 3.12521ZM17.1001 8.59148L16.7464 8.94492C16.7557 8.95418 16.7573 8.95719 16.7554 8.95441L17.1705 8.67572L17.5856 8.39704C17.5428 8.33324 17.4963 8.28057 17.4537 8.23803L17.1001 8.59148ZM17.1705 8.67572L16.7554 8.95448C16.7496 8.94583 16.7455 8.93881 16.7431 8.93448C16.7407 8.93026 16.7395 8.92777 16.7399 8.92849C16.74 8.92881 16.7404 8.92957 16.7412 8.93115C16.7421 8.933 16.7428 8.93453 16.7443 8.93765C16.7468 8.94273 16.7512 8.95195 16.7564 8.96208L17.2016 8.73442L17.6468 8.50676C17.6469 8.50709 17.6466 8.50639 17.6442 8.50153C17.6425 8.49804 17.6384 8.48943 17.6341 8.48087C17.6253 8.46332 17.6091 8.43194 17.5856 8.39697L17.1705 8.67572ZM17.2016 8.73442L16.7566 8.96234C16.7623 8.97352 16.7674 8.9828 16.7705 8.98826C16.772 8.99099 16.7735 8.99356 16.7742 8.99491C16.7752 8.99661 16.7755 8.99713 16.7757 8.99746C16.7761 8.99813 16.7743 8.99504 16.7718 8.99013C16.7692 8.98503 16.7651 8.97659 16.7605 8.96562L17.2216 8.7724L17.6828 8.57917C17.6686 8.54544 17.6539 8.51901 17.6482 8.50896C17.6467 8.50616 17.6452 8.50357 17.6444 8.50215C17.6434 8.50039 17.6431 8.49984 17.6429 8.49945C17.6424 8.49866 17.6442 8.50167 17.6466 8.50649L17.2016 8.73442ZM17.2216 8.7724L16.7603 8.96526C16.7581 8.95995 16.7574 8.95735 16.7579 8.959C16.7585 8.96088 16.7597 8.96533 16.762 8.97487L17.2479 8.85664L17.7337 8.73842C17.7248 8.70179 17.7096 8.64335 17.6829 8.57954L17.2216 8.7724ZM17.2479 8.85664L16.7621 8.97494C16.768 8.99952 16.7747 9.01904 16.7788 9.03056C16.7809 9.03646 16.7827 9.04128 16.7838 9.04416C16.7844 9.04563 16.7849 9.04688 16.7852 9.04761C16.7853 9.04798 16.7855 9.04832 16.7855 9.04851C16.7856 9.04874 16.7857 9.04881 16.7857 9.04886C16.7858 9.0492 16.7851 9.04735 16.7841 9.04475C16.7831 9.04201 16.7814 9.03743 16.7794 9.03162C16.7756 9.02026 16.7697 9.00116 16.7647 8.97674L17.2548 8.87736L17.7448 8.77798C17.7391 8.74999 17.7322 8.7274 17.7272 8.71258C17.7225 8.69852 17.7179 8.68707 17.7172 8.68507C17.7162 8.68271 17.7168 8.68408 17.717 8.68465C17.7174 8.68582 17.7186 8.68894 17.7201 8.69312C17.723 8.70121 17.7285 8.71728 17.7337 8.73835L17.2479 8.85664ZM17.2548 8.87736L16.7648 8.9768C16.7654 8.98023 16.7664 8.98907 16.7636 9.00319L17.2541 9.1004L17.7445 9.19762C17.7709 9.06454 17.7739 8.92157 17.7448 8.77792L17.2548 8.87736ZM17.2541 9.1004L16.7636 9.00326C16.7644 8.99926 16.7643 9.00435 16.7546 9.02092L17.1864 9.27303L17.6182 9.52515C17.6705 9.43556 17.7191 9.32609 17.7445 9.19754L17.2541 9.1004ZM17.1864 9.27303L16.7545 9.02104C16.7478 9.03261 16.7439 9.03836 16.7421 9.04086C16.7405 9.04312 16.7419 9.04082 16.7465 9.03618L17.1001 9.38973L17.4536 9.74329C17.5323 9.66465 17.5846 9.58273 17.6183 9.52503L17.1864 9.27303ZM17.1001 9.38973L16.7465 9.03618L11.281 14.5018L11.6345 14.8553L11.9881 15.2089L17.4536 9.74329L17.1001 9.38973ZM11.6345 14.8553L11.281 14.5018C11.2559 14.5268 11.215 14.527 11.1897 14.5016L10.8362 14.8553L10.4828 15.209C10.8984 15.6243 11.5723 15.6246 11.9881 15.2089L11.6345 14.8553ZM10.8362 14.8553L11.1898 14.5018C11.1646 14.4766 11.1646 14.4358 11.1898 14.4106L10.8362 14.0571L10.4827 13.7035C10.067 14.1192 10.067 14.7931 10.4827 15.2089L10.8362 14.8553ZM10.8362 14.0571L11.1898 14.4106L15.6921 9.90833L15.3385 9.55477L14.985 9.20122L10.4827 13.7035L10.8362 14.0571ZM15.3385 9.55477L15.3385 9.05477L1.79854 9.05477L1.79854 9.55477L1.79854 10.0548L15.3385 10.0548L15.3385 9.55477ZM1.79854 9.55477L1.79858 9.05477C1.76332 9.05477 1.7344 9.02625 1.73437 8.9903L1.23437 8.99061L0.734375 8.99091C0.734729 9.57815 1.2105 10.0547 1.7985 10.0548L1.79854 9.55477ZM1.23437 8.99061L1.73437 8.9906C1.73437 8.95497 1.7636 8.92575 1.79923 8.92575L1.79923 8.42575L1.79923 7.92575C1.21132 7.92575 0.734374 8.40269 0.734375 8.99061L1.23437 8.99061ZM1.79923 8.42575L1.79923 8.92575L15.3378 8.92575L15.3378 8.42575L15.3378 7.92575L1.79923 7.92575L1.79923 8.42575ZM15.3378 8.42575L15.6914 8.0722L11.1891 3.56991L10.8356 3.92347L10.482 4.27702L14.9843 8.7793L15.3378 8.42575ZM10.8356 3.92347L11.1892 3.57003C11.1642 3.54495 11.164 3.50386 11.1893 3.47857L10.8356 3.12521L10.4818 2.77185C10.0667 3.18742 10.0664 3.8612 10.4819 4.27691L10.8356 3.92347ZM10.8356 3.12521L11.1891 3.47876C11.2142 3.45373 11.255 3.45355 11.2804 3.47888L11.6338 3.12521L11.9873 2.77154C11.5717 2.35622 10.8978 2.35587 10.482 2.77166L10.8356 3.12521ZM11.6338 3.12521L11.2803 3.47876L16.7465 8.94503L17.1001 8.59148L17.4536 8.23792L11.9874 2.77166L11.6338 3.12521Z" fill="#FFD601"/>
</svg>
