<svg width="57" height="43" viewBox="0 0 57 43" fill="none" xmlns="http://www.w3.org/2000/svg">
<rect x="0.5" y="0.5" width="55.743" height="41.5635" rx="7.5" stroke="#E3E2E0"/>
<path d="M19.2564 19.2564C21.8125 19.2564 23.8846 17.1843 23.8846 14.6282C23.8846 12.0721 21.8125 10 19.2564 10C16.7003 10 14.6282 12.0721 14.6282 14.6282C14.6282 17.1843 16.7003 19.2564 19.2564 19.2564Z" fill="#00C898"/>
<path d="M28.5128 27.3567C28.5128 30.232 28.5128 32.5635 19.2564 32.5635C10 32.5635 10 30.232 10 27.3567C10 24.4815 14.1446 22.15 19.2564 22.15C24.3683 22.15 28.5128 24.4815 28.5128 27.3567Z" fill="#00C898"/>
<path fill-rule="evenodd" clip-rule="evenodd" d="M33.6804 18.1694C33.9039 17.946 34.2662 17.946 34.4897 18.1694L39.4644 23.1441C39.8284 23.5082 40.4274 23.5082 40.7915 23.1441L45.7662 18.1694C45.9896 17.946 46.352 17.946 46.5754 18.1694C46.7989 18.3929 46.7989 18.7552 46.5754 18.9787L41.6007 23.9534C40.7898 24.7644 39.4661 24.7644 38.6551 23.9534L33.6804 18.9787C33.4569 18.7552 33.4569 18.3929 33.6804 18.1694Z" fill="#595D61"/>
</svg>
