<svg width="220" height="40" viewBox="0 0 220 40" fill="none" xmlns="http://www.w3.org/2000/svg">
<path d="M212.351 34.3829L208.127 29.3231C206.959 29.6153 205.763 29.7614 204.542 29.7614C201.939 29.7614 199.548 29.1505 197.37 27.9287C195.192 26.7069 193.466 25.0203 192.191 22.8689C190.916 20.6909 190.279 18.2341 190.279 15.4984C190.279 12.7892 190.916 10.3589 192.191 8.20749C193.466 6.02953 195.192 4.32965 197.37 3.10787C199.548 1.88608 201.939 1.27519 204.542 1.27519C207.171 1.27519 209.562 1.88608 211.713 3.10787C213.891 4.32965 215.604 6.02953 216.853 8.20749C218.127 10.3589 218.765 12.7892 218.765 15.4984C218.765 17.9685 218.234 20.2261 217.171 22.2713C216.135 24.2899 214.714 25.9367 212.908 27.2116L219.283 34.3829H212.351ZM196.016 15.4984C196.016 17.3576 196.374 18.9911 197.091 20.3988C197.809 21.8065 198.805 22.8955 200.079 23.6657C201.381 24.4094 202.868 24.7813 204.542 24.7813C206.215 24.7813 207.689 24.4094 208.964 23.6657C210.239 22.8955 211.235 21.8065 211.952 20.3988C212.669 18.9911 213.028 17.3576 213.028 15.4984C213.028 13.6391 212.669 12.0189 211.952 10.6378C211.235 9.23007 210.239 8.15437 208.964 7.41068C207.689 6.66698 206.215 6.29513 204.542 6.29513C202.868 6.29513 201.381 6.66698 200.079 7.41068C198.805 8.15437 197.809 9.23007 197.091 10.6378C196.374 12.0189 196.016 13.6391 196.016 15.4984Z" fill="#595D61"/>
<path d="M186.123 1.67392V29.4828H180.545V1.67392H186.123Z" fill="#595D61"/>
<path d="M177.54 7.41024L163.875 39.9203H157.938L162.719 28.9243L153.875 7.41024H160.13L165.827 22.8286L171.604 7.41024H177.54Z" fill="#595D61"/>
<path d="M150.913 -3.8147e-06V29.4822H145.335V-3.8147e-06H150.913Z" fill="#595D61"/>
<path d="M123.911 10.5975C124.628 9.58819 125.611 8.75153 126.859 8.08752C128.134 7.39694 129.581 7.05166 131.202 7.05166C133.087 7.05166 134.787 7.51647 136.301 8.44609C137.842 9.3757 139.05 10.7037 139.927 12.4302C140.83 14.13 141.281 16.1088 141.281 18.3664C141.281 20.6241 140.83 22.6294 139.927 24.3824C139.05 26.1088 137.842 27.4502 136.301 28.4063C134.787 29.3625 133.087 29.8406 131.202 29.8406C129.581 29.8406 128.147 29.5086 126.899 28.8446C125.677 28.1806 124.681 27.3439 123.911 26.3346V40H118.333V7.41022H123.911V10.5975ZM135.584 18.3664C135.584 17.0384 135.305 15.8963 134.747 14.9401C134.216 13.9574 133.499 13.2137 132.596 12.7091C131.719 12.2044 130.763 11.9521 129.727 11.9521C128.718 11.9521 127.762 12.2177 126.859 12.7489C125.982 13.2535 125.265 13.9972 124.707 14.98C124.176 15.9627 123.911 17.1181 123.911 18.4461C123.911 19.7742 124.176 20.9295 124.707 21.9123C125.265 22.895 125.982 23.652 126.859 24.1832C127.762 24.6879 128.718 24.9402 129.727 24.9402C130.763 24.9402 131.719 24.6746 132.596 24.1434C133.499 23.6122 134.216 22.8552 134.747 21.8724C135.305 20.8897 135.584 19.721 135.584 18.3664Z" fill="#595D61"/>
<path d="M96.911 10.5975C97.6282 9.58819 98.6109 8.75153 99.8593 8.08752C101.134 7.39694 102.582 7.05166 104.202 7.05166C106.088 7.05166 107.788 7.51647 109.302 8.44609C110.842 9.3757 112.051 10.7037 112.927 12.4302C113.83 14.13 114.282 16.1088 114.282 18.3664C114.282 20.6241 113.83 22.6294 112.927 24.3824C112.051 26.1088 110.842 27.4502 109.302 28.4063C107.788 29.3625 106.088 29.8406 104.202 29.8406C102.582 29.8406 101.147 29.5086 99.8991 28.8446C98.6773 28.1806 97.6813 27.3439 96.911 26.3346V40H91.3333V7.41022H96.911V10.5975ZM108.584 18.3664C108.584 17.0384 108.306 15.8963 107.748 14.9401C107.217 13.9574 106.499 13.2137 105.596 12.7091C104.72 12.2044 103.764 11.9521 102.728 11.9521C101.718 11.9521 100.762 12.2177 99.8593 12.7489C98.9828 13.2535 98.2656 13.9972 97.7078 14.98C97.1766 15.9627 96.911 17.1181 96.911 18.4461C96.911 19.7742 97.1766 20.9295 97.7078 21.9123C98.2656 22.895 98.9828 23.652 99.8593 24.1832C100.762 24.6879 101.718 24.9402 102.728 24.9402C103.764 24.9402 104.72 24.6746 105.596 24.1434C106.499 23.6122 107.217 22.8552 107.748 21.8724C108.306 20.8897 108.584 19.721 108.584 18.3664Z" fill="#595D61"/>
<path d="M85.8295 7.41024V29.482H80.2119V26.6932C79.4948 27.6494 78.5519 28.4063 77.3832 28.9641C76.2411 29.4953 74.9927 29.7609 73.6381 29.7609C71.9117 29.7609 70.3845 29.4024 69.0564 28.6852C67.7284 27.9415 66.6793 26.8658 65.909 25.4581C65.1653 24.0239 64.7935 22.324 64.7935 20.3585V7.41024H70.3712V19.5617C70.3712 21.3147 70.8094 22.6693 71.6859 23.6254C72.5624 24.5551 73.7577 25.0199 75.2716 25.0199C76.8121 25.0199 78.0206 24.5551 78.8971 23.6254C79.7736 22.6693 80.2119 21.3147 80.2119 19.5617V7.41024H85.8295Z" fill="#595D61"/>
<path d="M50.3154 29.7611C48.3765 29.7611 46.6235 29.4291 45.0564 28.765C43.5159 28.101 42.2941 27.1449 41.391 25.8965C40.488 24.6482 40.0231 23.1741 39.9966 21.4742H45.9727C46.0524 22.6163 46.4508 23.5193 47.168 24.1834C47.9116 24.8474 48.921 25.1794 50.1959 25.1794C51.4973 25.1794 52.5199 24.8739 53.2636 24.263C54.0073 23.6256 54.3792 22.8022 54.3792 21.7929C54.3792 20.9695 54.1268 20.2922 53.6222 19.761C53.1175 19.2298 52.4801 18.8181 51.7098 18.526C50.9661 18.2072 49.9303 17.8619 48.6022 17.4901C46.7961 16.9589 45.322 16.441 44.1799 15.9363C43.0643 15.4051 42.0949 14.6216 41.2715 13.5857C40.4747 12.5233 40.0763 11.1156 40.0763 9.36257C40.0763 7.71582 40.488 6.28155 41.3113 5.05976C42.1347 3.83798 43.2901 2.90836 44.7775 2.27091C46.2649 1.60689 47.9648 1.27489 49.8771 1.27489C52.7457 1.27489 55.0697 1.97874 56.8493 3.38645C58.6554 4.7676 59.6514 6.70652 59.8374 9.20321H53.7019C53.6487 8.24703 53.2371 7.46349 52.4668 6.8526C51.7231 6.21515 50.7271 5.89642 49.4787 5.89642C48.3897 5.89642 47.5132 6.17531 46.8492 6.73308C46.2118 7.29085 45.893 8.10094 45.893 9.16337C45.893 9.90706 46.1321 10.5312 46.6102 11.0359C47.1148 11.514 47.7257 11.9124 48.4429 12.2311C49.1866 12.5233 50.2224 12.8686 51.5505 13.267C53.3566 13.7982 54.8307 14.3294 55.9728 14.8606C57.1149 15.3918 58.0976 16.1886 58.921 17.2511C59.7444 18.3135 60.1561 19.7079 60.1561 21.4343C60.1561 22.9217 59.771 24.3029 59.0007 25.5778C58.2304 26.8527 57.1016 27.8753 55.6142 28.6455C54.1268 29.3892 52.3606 29.7611 50.3154 29.7611Z" fill="#595D61"/>
<path d="M4.0868 19.1318V15.0508H0.00574493L4.0868 19.1318ZM4.23035 4.84375V14.9072H14.2889L17.1356 12.0605L7.0741 2L4.23035 4.84375Z" fill="#00D498"/>
<path d="M25.9123 14.8664V18.9504H29.9963L25.9123 14.8664ZM25.7697 29.1555V19.094H15.7092L12.8635 21.9397L22.925 32.0002L25.7697 29.1555Z" fill="#00D498"/>
<path d="M16.9467 1.99797V6.08488H12.8598L16.9467 1.99797ZM17.0913 16.2948V6.22844H27.1469L29.9916 9.07316L19.9311 19.1347L17.0913 16.2948Z" fill="#00D498"/>
<path d="M13.0508 31.9973V27.9162H17.1318L13.0508 31.9973ZM12.9062 17.7102V27.7727H2.84668L0 24.926L10.0615 14.8654L12.9062 17.7102Z" fill="#00D498"/>
</svg>
